Simulation
nRows=40
nColumns=15
endheader
time  TH_x TH_y TH_z SC_y  SC_z  SC_x  AC_y  AC_z  AC_x  GH_y  GH_z  GH_yy  EL_x  PS_y
5.745  0.000000  0.000000  0.000000  -52.065038770289505  17.710975325906805  16.495498146801  46.83494808302413  12.272671581156967  13.505273143533762  35.03571118240985  55.58431002558405  -44.72693712476621  18.58304608199672  120.000000
5.80245  0.000000  0.000000  0.000000  -50.84677420054809  17.07874033378306  13.985484446708814  46.325181063023415  11.906581573138656  12.488713965593384  36.208608900280645  54.70933980726546  -45.36785173999304  18.87590421623047  120.000000
5.8599  0.000000  0.000000  0.000000  -49.406240022160205  16.275456804438477  10.920901904747735  45.68528098429578  11.476005243153471  11.511772499044477  37.49271904807521  53.40847867550712  -45.81665879131132  19.269030665412217  120.000000
5.91735  0.000000  0.000000  0.000000  -47.78606779609786  15.262212257495781  7.4279840031815265  44.908685710258425  11.038898091453627  10.651955837118312  38.766746405121125  51.65387066149581  -45.99171465541821  19.672978785011875  120.000000
5.9748  0.000000  0.000000  0.000000  -46.027376793776085  14.025614554755553  3.660507194982039  43.99893138108722  10.683315278889246  9.971054206272083  39.93089393679512  49.42800635513626  -45.8583081365881  19.97914174021435  120.000000
6.03225  0.000000  0.000000  0.000000  -44.16942623179154  12.580513358455772  -0.21420279890264696  42.98392951307939  10.511576362485615  9.509492945464832  40.923229694657  46.73618838411373  -45.44265662584258  20.09337004744231  120.000000
6.089700000000001  0.000000  0.000000  0.000000  -42.25658261778611  10.966098692948114  -4.029739786794826  41.918505566542585  10.618097913168366  9.287283631675981  41.732036193642564  43.619247526765044  -44.829133065235844  19.96329367826374  120.000000
6.14715  0.000000  0.000000  0.000000  -40.35058528132102  9.242352355245222  -7.636552106857535  40.87629574120555  11.066012608472748  9.307425921410294  42.405031502057625  40.16511007166316  -44.14575244126257  19.58771543491054  120.000000
6.2046  0.000000  0.000000  0.000000  -38.53504266150689  7.488459756929423  -10.92040299439572  39.9384425538043  11.869652448657053  9.555904482597073  43.05539558096417  36.510259439779404  -43.54943569510567  19.00455401722204  120.000000
6.26205  0.000000  0.000000  0.000000  -36.90870723547397  5.794828055184518  -13.812879289919016  39.17339993286079  12.986457419615672  10.004962867723338  43.860885818301014  32.8200087915007  -43.212990532827654  18.27433600751315  120.000000
6.3195  0.000000  0.000000  0.000000  -35.565680516173465  4.251035793433193  -16.28907143572293  38.61933183489687  14.32730908468741  10.616762830306277  45.04735409163524  29.25674062743818  -43.31068006658639  17.47146038673674  120.000000
6.37695  0.000000  0.000000  0.000000  -34.56691303101271  2.934352024306659  -18.354126936810047  38.28306383628011  15.780439521031738  11.347184736746154  46.85927406866663  25.952735663505223  -44.00371123584611  16.679497295770332  120.000000
6.4344  0.000000  0.000000  0.000000  -33.9249634786314  1.8954493013738811  -20.026442725735162  38.144373849335956  17.23573232031809  12.151598428710424  49.51451325677494  22.99718074009608  -45.421200198539395  15.983872842053783  120.000000
6.49185  0.000000  0.000000  0.000000  -33.6077571960589  1.1548577683711103  -21.328601663808247  38.16445251259871  18.60310172587237  12.98633560491292  53.152692417429215  20.43776807835626  -47.63835925808442  15.45939261727183  120.000000
6.549300000000001  0.000000  0.000000  0.000000  -33.55426083377342  0.7050523698015763  -22.286526097650988  38.295942271647164  19.82043717414028  13.809179755973407  57.79530111264488  18.290490680638218  -50.659559786659365  15.155267048509504  120.000000
6.60675  0.000000  0.000000  0.000000  -33.69097252664389  0.5113269580515085  -22.932039921335612  38.49294035132379  20.854858750242347  14.578186263845167  63.32531905359636  16.55013066178443  -54.40582452139908  15.085933034139526  120.000000
6.6642  0.000000  0.000000  0.000000  -33.94639590645784  0.5208641687778114  -23.302421091854523  38.71331144893014  21.696567284722  15.255364245747485  69.48869613458406  15.191636864945876  -58.704541636458465  15.234812122920175  120.000000
6.72165  0.000000  0.000000  0.000000  -34.260289774342795  0.6747445958576972  -23.43935816603263  38.91995319472746  22.351307092123637  15.809941085970943  75.93168490888054  14.16738170397914  -63.301559093507855  15.563018660206248  120.000000
6.7791  0.000000  0.000000  0.000000  -34.58664828349223  0.9149195375433122  -23.387581275220537  39.088356305159884  22.83297885160088  16.219678077902564  82.28652673942183  13.41218595886083  -67.9182474875662  16.01271528841726  120.000000
6.83655  0.000000  0.000000  0.000000  -34.89049525244247  1.1877135985275127  -23.190409502956776  39.21110947912639  23.156349525946375  16.473641335621718  88.2641488530914  12.855699816506684  -72.32305025814402  16.507380824257773  120.000000
6.894  0.000000  0.000000  0.000000  -35.147551172352635  1.4519595563086087  -22.885163994955757  39.297177520597295  23.33476958240467  16.572511110708646  93.69948889140642  12.436466263556731  -76.3742437900787  16.960056893239667  120.000000
6.95145  0.000000  0.000000  0.000000  -35.34208339195147  1.6834467469898335  -22.50142605680513  39.36690768917306  23.38355697298381  16.525359175093016  98.53487423163489  12.108058479199634  -80.01515455215146  17.291745680762517  120.000000
7.008900000000001  0.000000  0.000000  0.000000  -35.467546655841886  1.870111625001146  -22.059986237706944  39.440435722765265  23.32124108882676  16.34833490420068  102.77982562286446  11.837186131965044  -83.2491455158739  17.45680874186635  120.000000
7.06635  0.000000  0.000000  0.000000  -35.533291050706154  2.0077699914091127  -21.572577624986586  39.52609438956506  23.16650675225416  16.065410060194097  106.47766417927214  11.600289738848092  -86.11803399812909  17.464321688876392  120.000000
7.1238  0.000000  0.000000  0.000000  -35.56154341441996  2.098050617604121  -21.044559794903382  39.62076017085273  22.938560895534145  15.702359904059888  109.68012695032057  11.380536942975233  -88.68045810120901  17.3745511030664  120.000000
7.18125  0.000000  0.000000  0.000000  -35.57651665100923  2.1500672795687374  -20.47893805306951  39.72263970837726  22.659315337788186  15.277835979233295  112.42534646249995  11.169932895536405  -90.98523953026054  17.272591049300416  120.000000
7.2387  0.000000  0.000000  0.000000  -35.59696603286886  2.1781775185970496  -19.878150650130088  39.837044487602824  22.349793298196833  14.804075501746064  114.73045954084927  10.967733043705458  -93.0541343068255  17.233663323067475  120.000000
7.29615  0.000000  0.000000  0.000000  -35.632960885306936  2.193553042059827  -19.243810868412417  39.96844365361147  22.0222422038306  14.295788737388522  116.61735097028665  10.770573019761242  -94.8965094321111  17.29468176958338  120.000000
7.3536  0.000000  0.000000  0.000000  -35.68501056636654  2.202620319245228  -18.57748574658609  40.11726715261895  21.67897094739998  13.772471336574377  118.13270323876269  10.569226952880799  -96.52714555585091  17.448713135448603  120.000000
7.41105  0.000000  0.000000  0.000000  -35.74507681678667  2.2109109080270453  -17.883450717079924  40.286557556415836  21.31926318403414  13.250299874835237  119.33126342115331  10.353769203743223  -97.95823136115712  17.662121467352126  120.000000
7.468500000000001  0.000000  0.000000  0.000000  -35.79944497722377  2.224242688328692  -17.170142940359504  40.483195289456816  20.943419140010775  12.737204613690096  120.26649666659078  10.116557357075054  -99.20073443286114  17.89708400000715  120.000000
7.52595  0.000000  0.000000  0.000000  -35.83791310777088  2.2463205691467363  -16.448032820952037  40.709959949592594  20.551311170493086  12.23686281469907  120.99344924725933  9.85272436240808  -100.27604972274867  18.12738680199381  120.000000
7.5834  0.000000  0.000000  0.000000  -35.858492394940036  2.2776672296783573  -15.727028662590092  40.96178222857857  20.142081352341414  11.752273524682638  121.56874463552514  9.560955800741604  -101.21971331016991  18.343929988777653  120.000000
7.64085  0.000000  0.000000  0.000000  -35.86563889112941  2.3166384833954825  -15.015028116436023  41.228703778796834  19.71546640883865  11.286298262880367  122.04728301417286  9.244141272203006  -102.07613901821378  18.550154380534757  120.000000
7.6983  0.000000  0.000000  0.000000  -35.86664181908739  2.3610255356425034  -14.317625112595543  41.5006694350238  19.27327275591142  10.840575743417851  122.47820125701737  8.909083425313463  -102.89046990692565  18.75367187515209  120.000000
7.75575  0.000000  0.000000  0.000000  -35.86775180763075  2.408895242434212  -13.638445459570624  41.77121607611362  18.819872956337115  10.414485845120968  122.90319462144925  8.565514569398879  -103.70284887018742  18.959547188419965  120.000000
7.8132  0.000000  0.000000  0.000000  -35.87339318646065  2.4573074043033  -12.979043231565111  42.037305351108564  18.361247806049757  10.005980118546763  123.35559628150698  8.224572844080514  -104.54499956406451  19.167432821194748  120.000000
7.87065  0.000000  0.000000  0.000000  -35.88581317524346  2.502513095431246  -12.33900279181696  42.29780861243824  17.903366598291566  9.612770032980189  123.86387175674562  7.897164329614426  -105.44145854956987  19.373268015628994  120.000000
7.928100000000001  0.000000  0.000000  0.000000  -35.90535375333938  2.5405387109612256  -11.716718861513462  42.55330309901996  17.45190166105683  9.231295572725516  124.44647287534418  7.5929511458738  -106.40339380581854  19.57369951248187  120.000000
7.98555  0.000000  0.000000  0.000000  -35.933824260126926  2.56663348771945  -11.109452849236824  42.801836558617616  17.011023716109293  8.857431025090834  125.10824774963851  7.317546658841314  -107.42484514243414  19.770498431913495  120.000000
